<?xml version="1.0" encoding="UTF-8"?><svg id="a" xmlns="http://www.w3.org/2000/svg" viewBox="0 0 300 300"><path d="M173.9,201.8c-.8,4.8-2.1,7.4-4,7.8-2.7.7-7.8,0-15.3-2.2-8-2.2-12.5-4.4-13.6-6.7-.3-.8-.5-1.6-.5-2.5s.1-1.7.4-3.2c.3-1.5.4-2.7.4-3.7v-75.6c-5.2,10.2-12,33.2-20.5,68.9-.1.4-.2.9-.2,1.5,0,1.1.2,2.9.6,5.3.4,2.4.6,4,.6,4.7-.1,3.4-.3,5.7-.5,6.7-.6,2.2-1.7,3.5-3.5,4-1.1.3-3.1.5-5.8.5-14.4,0-24.4-2.5-29.8-7.5-.9-.8-1.2-2.2-1-4.2.2-2.4.2-4,0-4.8-4.1-12.6-7.8-23.7-11-33.3-7.8-23.1-12.8-36.7-15.1-40.8v66.2c0,1.4.4,3.4,1.3,6,1.1,3.1,1.7,5.1,1.8,5.8.4,2.2.6,4.9.3,8-.2,3.8-1,6.1-2.3,7-.7.4-1.9.7-3.8.7-4.1,0-9-.7-14.6-2.2-6.1-1.4-9.7-2.9-10.8-4.5-.6-.8-.8-1.7-.8-2.8s.2-1.8.6-3.3c.4-1.6.6-2.8.6-3.7v-118c0-1.3.6-2.9,1.7-4.6,1.1-1.7,2.4-2.9,3.8-3.4,1.9-.8,9.2.6,21.8,4,13.2,3.4,20.2,6.4,21,9,.3,1,.4,2.3.2,4-.3,2.3-.5,3.7-.5,4.2,0,1,.2,1.9.5,2.7l22.5,60.4c3.1-9.9,8.8-29.9,17-60.1,4.1-15.4,7.4-23.5,10-24.1.8-.2,1.7-.3,2.7-.3,1.9,0,5,.5,9.5,1.5,4.9,1.2,8.3,1.9,10.2,2,8.8.8,13.8,1.3,15.1,1.5,5.2,1,8.2,2.8,8.8,5.5.2.8.3,1.6.3,2.5s-.3,2.7-.8,4.7c-.6,2.1-.8,3.6-.8,4.6v101.9c0,1.1.7,2.8,2.1,5,1.4,2.2,2,3.9,1.7,5Z"/><path d="M277.4,180.9c.3,2.8-1.6,8-5.7,15.6-4.3,8-7.9,11.8-10.7,11.5-3.3-.4-10.4-7-21.1-19.8-12-14.3-19.4-22.4-22.1-24.3v30.6c0,.7.3,1.8,1,3.5.7,1.7,1.1,2.9,1.2,3.7.6,4.4-.4,7.3-2.8,8.7-1.1.7-2.9,1-5.5,1-4.9,0-9.7-.9-14.3-2.8-5.2-2.1-7.8-4.6-7.8-7.3v-121.8c0-2.1.7-4.5,2.2-7.1,1.4-2.6,3.1-4.2,4.8-4.9.3-.1.8-.2,1.5-.2,3.2,0,7.8,1.2,13.7,3.7,5.9,2.4,9.2,4.5,9.7,6.2.2.8-.3,4.8-1.7,12.1-1.4,8.3-2.2,14.6-2.2,19s0,2.7.2,3.8l28.6-43.9c1.7-2.6,3.8-3.8,6.3-3.7,2.8.1,6.9,1.9,12.3,5.3,6.1,4,9.2,7.8,9.3,11.3,0,1-4.4,7.2-13.3,18.6-11.2,14.2-20,26.7-26.3,37.6l33.6,38.6c.8.9,2.6,1.6,5.3,2.2,2.3.6,3.5,1.5,3.7,2.8Z"/></svg>